# xmcd
#
# Track frame offsets:
#	150
#	33671
#	64105
#
# Disc length: 1035 seconds
#
# Revision: 1
# Processed by: cddbd v1.5.2PL0 Copyright (c) Steve Scherf et al.
# Submitted via: audiograbber 1.83.01
#
DISCID=23040903
DTITLE=Chanel - If You Love Me - Hed Kandi Promo
DYEAR=2009
DGENRE=Dance
TTITLE0=If You Love Me (Disco Lips Extended Mix)
TTITLE1=If You Love Me (Steve Smart and Danny Dove Remix)
TTITLE2=If You Love Me (Radio Edit)
EXTD=
EXTT0=
EXTT1=
EXTT2=
PLAYORDER=
